<?xml version="1.0" encoding="UTF-8" standalone="no"?><svg xmlns="http://www.w3.org/2000/svg" xmlns:xlink="http://www.w3.org/1999/xlink" contentStyleType="text/css" height="1146px" preserveAspectRatio="none" style="width:1384px;height:1146px;background:#FFFFFF;" version="1.1" viewBox="0 0 1384 1146" width="1384px" zoomAndPan="magnify"><defs/><g><!--MD5=[5d4cd377749310b66bf14896f5cd8d9b]
cluster model--><g id="cluster_model"><path d="M73.34,6 L117.34,6 A3.75,3.75 0 0 1 119.84,8.5 L126.84,29.6094 L959.34,29.6094 A2.5,2.5 0 0 1 961.84,32.1094 L961.84,1136.5 A2.5,2.5 0 0 1 959.34,1139 L73.34,1139 A2.5,2.5 0 0 1 70.84,1136.5 L70.84,8.5 A2.5,2.5 0 0 1 73.34,6 " fill="none" style="stroke:#000000;stroke-width:1.5;"/><line style="stroke:#000000;stroke-width:1.5;" x1="70.84" x2="126.84" y1="29.6094" y2="29.6094"/><text fill="#000000" font-family="sans-serif" font-size="14" font-weight="bold" lengthAdjust="spacing" textLength="43" x="74.84" y="22.5332">model</text></g><!--MD5=[1a8f67706503551ce44cf9bfa5015619]
cluster view_controller--><g id="cluster_view_controller"><path d="M988.34,781 L1099.34,781 A3.75,3.75 0 0 1 1101.84,783.5 L1108.84,804.6094 L1375.34,804.6094 A2.5,2.5 0 0 1 1377.84,807.1094 L1377.84,931.5 A2.5,2.5 0 0 1 1375.34,934 L988.34,934 A2.5,2.5 0 0 1 985.84,931.5 L985.84,783.5 A2.5,2.5 0 0 1 988.34,781 " fill="none" style="stroke:#000000;stroke-width:1.5;"/><line style="stroke:#000000;stroke-width:1.5;" x1="985.84" x2="1108.84" y1="804.6094" y2="804.6094"/><text fill="#000000" font-family="sans-serif" font-size="14" font-weight="bold" lengthAdjust="spacing" textLength="110" x="989.84" y="797.5332">view_controller</text></g><!--MD5=[b6dcce5e5ef3c84b0b048d11301373dd]
class Game--><g id="elem_Game"><rect codeLine="2" fill="#F1F1F1" height="259.3125" id="Game" rx="2.5" ry="2.5" style="stroke:#181818;stroke-width:0.5;" width="223" x="670.34" y="42"/><ellipse cx="758.59" cy="58" fill="#ADD1B2" rx="11" ry="11" style="stroke:#181818;stroke-width:1.0;"/><path d="M761.3556,53.875 Q761.5119,53.6563 761.6994,53.5469 Q761.8869,53.4375 762.1056,53.4375 Q762.4806,53.4375 762.715,53.7031 Q762.9494,53.9531 762.9494,54.5625 L762.9494,56.0156 Q762.9494,56.625 762.715,56.8906 Q762.4806,57.1563 762.1056,57.1563 Q761.7619,57.1563 761.5588,56.9531 Q761.3556,56.7656 761.2463,56.25 Q761.1994,55.8906 761.0119,55.7031 Q760.6838,55.3281 760.0744,55.1094 Q759.465,54.8906 758.84,54.8906 Q758.0744,54.8906 757.4338,55.2188 Q756.8088,55.5469 756.3088,56.2969 Q755.8244,57.0469 755.8244,58.0781 L755.8244,59.1719 Q755.8244,60.4063 756.715,61.2344 Q757.6056,62.0469 759.1994,62.0469 Q760.1369,62.0469 760.7931,61.7969 Q761.1838,61.6406 761.6056,61.2031 Q761.8713,60.9375 762.0119,60.8594 Q762.1681,60.7813 762.3713,60.7813 Q762.6994,60.7813 762.9494,61.0469 Q763.215,61.2969 763.215,61.6406 Q763.215,61.9844 762.8713,62.3906 Q762.3713,62.9688 761.5744,63.2969 Q760.4963,63.75 759.1994,63.75 Q757.6838,63.75 756.4806,63.125 Q755.4963,62.625 754.8088,61.5625 Q754.1213,60.4844 754.1213,59.2031 L754.1213,58.0469 Q754.1213,56.7188 754.7306,55.5781 Q755.3556,54.4219 756.4494,53.8125 Q757.5431,53.1875 758.7775,53.1875 Q759.5119,53.1875 760.1525,53.3594 Q760.8088,53.5156 761.3556,53.875 Z " fill="#000000"/><text fill="#000000" font-family="sans-serif" font-size="14" lengthAdjust="spacing" textLength="38" x="779.09" y="63.7285">Game</text><line style="stroke:#181818;stroke-width:0.5;" x1="671.34" x2="892.34" y1="74" y2="74"/><rect fill="none" height="6" style="stroke:#C82930;stroke-width:1.0;" width="6" x="678.34" y="85.3047"/><text fill="#000000" font-family="sans-serif" font-size="14" lengthAdjust="spacing" textLength="87" x="690.34" y="92.5332">player: Player</text><rect fill="none" height="6" style="stroke:#C82930;stroke-width:1.0;" width="6" x="678.34" y="102.9141"/><text fill="#000000" font-family="sans-serif" font-size="14" lengthAdjust="spacing" textLength="197" x="690.34" y="110.1426">invadersGroup: InvaderGroup[]</text><rect fill="none" height="6" style="stroke:#C82930;stroke-width:1.0;" width="6" x="678.34" y="120.5234"/><text fill="#000000" font-family="sans-serif" font-size="14" lengthAdjust="spacing" textLength="92" x="690.34" y="127.752">bullets: Bullet[]</text><rect fill="none" height="6" style="stroke:#C82930;stroke-width:1.0;" width="6" x="678.34" y="138.1328"/><text fill="#000000" font-family="sans-serif" font-size="14" lengthAdjust="spacing" textLength="58" x="690.34" y="145.3613">score: int</text><rect fill="none" height="6" style="stroke:#C82930;stroke-width:1.0;" width="6" x="678.34" y="155.7422"/><text fill="#000000" font-family="sans-serif" font-size="14" lengthAdjust="spacing" textLength="138" x="690.34" y="162.9707">isGameOver: boolean</text><line style="stroke:#181818;stroke-width:0.5;" x1="671.34" x2="892.34" y1="170.0469" y2="170.0469"/><ellipse cx="681.34" cy="184.3516" fill="#84BE84" rx="3" ry="3" style="stroke:#038048;stroke-width:1.0;"/><text fill="#000000" font-family="sans-serif" font-size="14" lengthAdjust="spacing" textLength="90" x="690.34" y="188.5801">getScore(): int</text><ellipse cx="681.34" cy="201.9609" fill="#84BE84" rx="3" ry="3" style="stroke:#038048;stroke-width:1.0;"/><text fill="#000000" font-family="sans-serif" font-size="14" lengthAdjust="spacing" textLength="162" x="690.34" y="206.1895">getAllInvaders(): Invader[]</text><ellipse cx="681.34" cy="219.5703" fill="#84BE84" rx="3" ry="3" style="stroke:#038048;stroke-width:1.0;"/><text fill="#000000" font-family="sans-serif" font-size="14" lengthAdjust="spacing" textLength="138" x="690.34" y="223.7988">getAllBullets(): Bullet[]</text><ellipse cx="681.34" cy="237.1797" fill="#84BE84" rx="3" ry="3" style="stroke:#038048;stroke-width:1.0;"/><text fill="#000000" font-family="sans-serif" font-size="14" lengthAdjust="spacing" textLength="118" x="690.34" y="241.4082">getPlayer(): Player</text><ellipse cx="681.34" cy="254.7891" fill="#84BE84" rx="3" ry="3" style="stroke:#038048;stroke-width:1.0;"/><text fill="#000000" font-family="sans-serif" font-size="14" lengthAdjust="spacing" textLength="76" x="690.34" y="259.0176">startGame()</text><ellipse cx="681.34" cy="272.3984" fill="#84BE84" rx="3" ry="3" style="stroke:#038048;stroke-width:1.0;"/><text fill="#000000" font-family="sans-serif" font-size="14" lengthAdjust="spacing" textLength="54" x="690.34" y="276.627">update()</text><ellipse cx="681.34" cy="290.0078" fill="#84BE84" rx="3" ry="3" style="stroke:#038048;stroke-width:1.0;"/><text fill="#000000" font-family="sans-serif" font-size="14" lengthAdjust="spacing" textLength="72" x="690.34" y="294.2363">endGame()</text></g><!--MD5=[2cb47ba637a0d19583e6199456f6ad0b]
class Player--><g id="elem_Player"><rect codeLine="17" fill="#F1F1F1" height="118.4375" id="Player" rx="2.5" ry="2.5" style="stroke:#181818;stroke-width:0.5;" width="121" x="112.34" y="808.5"/><ellipse cx="149.39" cy="824.5" fill="#ADD1B2" rx="11" ry="11" style="stroke:#181818;stroke-width:1.0;"/><path d="M152.1556,820.375 Q152.3119,820.1563 152.4994,820.0469 Q152.6869,819.9375 152.9056,819.9375 Q153.2806,819.9375 153.515,820.2031 Q153.7494,820.4531 153.7494,821.0625 L153.7494,822.5156 Q153.7494,823.125 153.515,823.3906 Q153.2806,823.6563 152.9056,823.6563 Q152.5619,823.6563 152.3588,823.4531 Q152.1556,823.2656 152.0463,822.75 Q151.9994,822.3906 151.8119,822.2031 Q151.4838,821.8281 150.8744,821.6094 Q150.265,821.3906 149.64,821.3906 Q148.8744,821.3906 148.2338,821.7188 Q147.6088,822.0469 147.1088,822.7969 Q146.6244,823.5469 146.6244,824.5781 L146.6244,825.6719 Q146.6244,826.9063 147.515,827.7344 Q148.4056,828.5469 149.9994,828.5469 Q150.9369,828.5469 151.5931,828.2969 Q151.9838,828.1406 152.4056,827.7031 Q152.6713,827.4375 152.8119,827.3594 Q152.9681,827.2813 153.1713,827.2813 Q153.4994,827.2813 153.7494,827.5469 Q154.015,827.7969 154.015,828.1406 Q154.015,828.4844 153.6713,828.8906 Q153.1713,829.4688 152.3744,829.7969 Q151.2963,830.25 149.9994,830.25 Q148.4838,830.25 147.2806,829.625 Q146.2963,829.125 145.6088,828.0625 Q144.9213,826.9844 144.9213,825.7031 L144.9213,824.5469 Q144.9213,823.2188 145.5306,822.0781 Q146.1556,820.9219 147.2494,820.3125 Q148.3431,819.6875 149.5775,819.6875 Q150.3119,819.6875 150.9525,819.8594 Q151.6088,820.0156 152.1556,820.375 Z " fill="#000000"/><text fill="#000000" font-family="sans-serif" font-size="14" lengthAdjust="spacing" textLength="40" x="168.29" y="830.2285">Player</text><line style="stroke:#181818;stroke-width:0.5;" x1="113.34" x2="232.34" y1="840.5" y2="840.5"/><line style="stroke:#181818;stroke-width:0.5;" x1="113.34" x2="232.34" y1="848.5" y2="848.5"/><ellipse cx="123.34" cy="862.8047" fill="#84BE84" rx="3" ry="3" style="stroke:#038048;stroke-width:1.0;"/><text fill="#000000" font-family="sans-serif" font-size="14" lengthAdjust="spacing" textLength="68" x="132.34" y="867.0332">moveLeft()</text><ellipse cx="123.34" cy="880.4141" fill="#84BE84" rx="3" ry="3" style="stroke:#038048;stroke-width:1.0;"/><text fill="#000000" font-family="sans-serif" font-size="14" lengthAdjust="spacing" textLength="77" x="132.34" y="884.6426">moveRight()</text><ellipse cx="123.34" cy="898.0234" fill="#84BE84" rx="3" ry="3" style="stroke:#038048;stroke-width:1.0;"/><text fill="#000000" font-family="sans-serif" font-size="14" lengthAdjust="spacing" textLength="95" x="132.34" y="902.252">isHit(): boolean</text><ellipse cx="123.34" cy="915.6328" fill="#84BE84" rx="3" ry="3" style="stroke:#038048;stroke-width:1.0;"/><text fill="#000000" font-family="sans-serif" font-size="14" lengthAdjust="spacing" textLength="80" x="132.34" y="919.8613">shootBullet()</text></g><!--MD5=[a98e56070b0e9f123ed16c46b7fb4155]
class InvadersGroup--><g id="elem_InvadersGroup"><rect codeLine="24" fill="#F1F1F1" height="188.875" id="InvadersGroup" rx="2.5" ry="2.5" style="stroke:#181818;stroke-width:0.5;" width="253" x="432.34" y="370.5"/><ellipse cx="507.59" cy="386.5" fill="#ADD1B2" rx="11" ry="11" style="stroke:#181818;stroke-width:1.0;"/><path d="M510.3556,382.375 Q510.5119,382.1563 510.6994,382.0469 Q510.8869,381.9375 511.1056,381.9375 Q511.4806,381.9375 511.715,382.2031 Q511.9494,382.4531 511.9494,383.0625 L511.9494,384.5156 Q511.9494,385.125 511.715,385.3906 Q511.4806,385.6563 511.1056,385.6563 Q510.7619,385.6563 510.5588,385.4531 Q510.3556,385.2656 510.2463,384.75 Q510.1994,384.3906 510.0119,384.2031 Q509.6838,383.8281 509.0744,383.6094 Q508.465,383.3906 507.84,383.3906 Q507.0744,383.3906 506.4338,383.7188 Q505.8088,384.0469 505.3088,384.7969 Q504.8244,385.5469 504.8244,386.5781 L504.8244,387.6719 Q504.8244,388.9063 505.715,389.7344 Q506.6056,390.5469 508.1994,390.5469 Q509.1369,390.5469 509.7931,390.2969 Q510.1838,390.1406 510.6056,389.7031 Q510.8713,389.4375 511.0119,389.3594 Q511.1681,389.2813 511.3713,389.2813 Q511.6994,389.2813 511.9494,389.5469 Q512.215,389.7969 512.215,390.1406 Q512.215,390.4844 511.8713,390.8906 Q511.3713,391.4688 510.5744,391.7969 Q509.4963,392.25 508.1994,392.25 Q506.6838,392.25 505.4806,391.625 Q504.4963,391.125 503.8088,390.0625 Q503.1213,388.9844 503.1213,387.7031 L503.1213,386.5469 Q503.1213,385.2188 503.7306,384.0781 Q504.3556,382.9219 505.4494,382.3125 Q506.5431,381.6875 507.7775,381.6875 Q508.5119,381.6875 509.1525,381.8594 Q509.8088,382.0156 510.3556,382.375 Z " fill="#000000"/><text fill="#000000" font-family="sans-serif" font-size="14" lengthAdjust="spacing" textLength="94" x="528.09" y="392.2285">InvadersGroup</text><line style="stroke:#181818;stroke-width:0.5;" x1="433.34" x2="684.34" y1="402.5" y2="402.5"/><rect fill="none" height="6" style="stroke:#C82930;stroke-width:1.0;" width="6" x="440.34" y="413.8047"/><text fill="#000000" font-family="sans-serif" font-size="14" lengthAdjust="spacing" textLength="146" x="452.34" y="421.0332">aliveInvaders: Invader[]</text><rect fill="none" height="6" style="stroke:#C82930;stroke-width:1.0;" width="6" x="440.34" y="431.4141"/><text fill="#000000" font-family="sans-serif" font-size="14" lengthAdjust="spacing" textLength="227" x="452.34" y="438.6426">invadersColumns: InvadersColumn[]</text><line style="stroke:#181818;stroke-width:0.5;" x1="433.34" x2="684.34" y1="445.7188" y2="445.7188"/><ellipse cx="443.34" cy="460.0234" fill="#84BE84" rx="3" ry="3" style="stroke:#038048;stroke-width:1.0;"/><text fill="#000000" font-family="sans-serif" font-size="14" lengthAdjust="spacing" textLength="174" x="452.34" y="464.252">setDirection(direction: float)</text><ellipse cx="443.34" cy="477.6328" fill="#84BE84" rx="3" ry="3" style="stroke:#038048;stroke-width:1.0;"/><text fill="#000000" font-family="sans-serif" font-size="14" lengthAdjust="spacing" textLength="101" x="452.34" y="481.8613">moveVertically()</text><ellipse cx="443.34" cy="495.2422" fill="#84BE84" rx="3" ry="3" style="stroke:#038048;stroke-width:1.0;"/><text fill="#000000" font-family="sans-serif" font-size="14" lengthAdjust="spacing" textLength="116" x="452.34" y="499.4707">moveHorizontally()</text><ellipse cx="443.34" cy="512.8516" fill="#84BE84" rx="3" ry="3" style="stroke:#038048;stroke-width:1.0;"/><text fill="#000000" font-family="sans-serif" font-size="14" lengthAdjust="spacing" textLength="182" x="452.34" y="517.0801">hasReachedEdge(): boolean</text><ellipse cx="443.34" cy="530.4609" fill="#84BE84" rx="3" ry="3" style="stroke:#038048;stroke-width:1.0;"/><text fill="#000000" font-family="sans-serif" font-size="14" lengthAdjust="spacing" textLength="174" x="452.34" y="534.6895">hasReachedEnd(): boolean</text><ellipse cx="443.34" cy="548.0703" fill="#84BE84" rx="3" ry="3" style="stroke:#038048;stroke-width:1.0;"/><text fill="#000000" font-family="sans-serif" font-size="14" lengthAdjust="spacing" textLength="80" x="452.34" y="552.2988">shootBullet()</text></g><!--MD5=[ea7fc8adad6a7a79672b7cc379cac631]
class InvadersColumn--><g id="elem_InvadersColumn"><rect codeLine="35" fill="#F1F1F1" height="83.2188" id="InvadersColumn" rx="2.5" ry="2.5" style="stroke:#181818;stroke-width:0.5;" width="192" x="427.84" y="629"/><ellipse cx="468.94" cy="645" fill="#ADD1B2" rx="11" ry="11" style="stroke:#181818;stroke-width:1.0;"/><path d="M471.7056,640.875 Q471.8619,640.6563 472.0494,640.5469 Q472.2369,640.4375 472.4556,640.4375 Q472.8306,640.4375 473.065,640.7031 Q473.2994,640.9531 473.2994,641.5625 L473.2994,643.0156 Q473.2994,643.625 473.065,643.8906 Q472.8306,644.1563 472.4556,644.1563 Q472.1119,644.1563 471.9088,643.9531 Q471.7056,643.7656 471.5963,643.25 Q471.5494,642.8906 471.3619,642.7031 Q471.0338,642.3281 470.4244,642.1094 Q469.815,641.8906 469.19,641.8906 Q468.4244,641.8906 467.7838,642.2188 Q467.1588,642.5469 466.6588,643.2969 Q466.1744,644.0469 466.1744,645.0781 L466.1744,646.1719 Q466.1744,647.4063 467.065,648.2344 Q467.9556,649.0469 469.5494,649.0469 Q470.4869,649.0469 471.1431,648.7969 Q471.5338,648.6406 471.9556,648.2031 Q472.2213,647.9375 472.3619,647.8594 Q472.5181,647.7813 472.7213,647.7813 Q473.0494,647.7813 473.2994,648.0469 Q473.565,648.2969 473.565,648.6406 Q473.565,648.9844 473.2213,649.3906 Q472.7213,649.9688 471.9244,650.2969 Q470.8463,650.75 469.5494,650.75 Q468.0338,650.75 466.8306,650.125 Q465.8463,649.625 465.1588,648.5625 Q464.4713,647.4844 464.4713,646.2031 L464.4713,645.0469 Q464.4713,643.7188 465.0806,642.5781 Q465.7056,641.4219 466.7994,640.8125 Q467.8931,640.1875 469.1275,640.1875 Q469.8619,640.1875 470.5025,640.3594 Q471.1588,640.5156 471.7056,640.875 Z " fill="#000000"/><text fill="#000000" font-family="sans-serif" font-size="14" lengthAdjust="spacing" textLength="102" x="488.74" y="650.7285">InvadersColumn</text><line style="stroke:#181818;stroke-width:0.5;" x1="428.84" x2="618.84" y1="661" y2="661"/><ellipse cx="438.84" cy="675.3047" fill="none" rx="3" ry="3" style="stroke:#038048;stroke-width:1.0;"/><text fill="#000000" font-family="sans-serif" font-size="14" lengthAdjust="spacing" textLength="117" x="447.84" y="679.5332">invaders: Invader[]</text><line style="stroke:#181818;stroke-width:0.5;" x1="428.84" x2="618.84" y1="686.6094" y2="686.6094"/><ellipse cx="438.84" cy="700.9141" fill="#84BE84" rx="3" ry="3" style="stroke:#038048;stroke-width:1.0;"/><text fill="#000000" font-family="sans-serif" font-size="14" lengthAdjust="spacing" textLength="166" x="447.84" y="705.1426">getFrontInvader(): Invader</text></g><!--MD5=[8d3a830b67c252bee88a11abdd7d6fed]
class Invader--><g id="elem_Invader"><rect codeLine="40" fill="#F1F1F1" height="188.875" id="Invader" rx="2.5" ry="2.5" style="stroke:#181818;stroke-width:0.5;" width="208" x="305.84" y="773"/><ellipse cx="382.09" cy="789" fill="#ADD1B2" rx="11" ry="11" style="stroke:#181818;stroke-width:1.0;"/><path d="M384.8556,784.875 Q385.0119,784.6563 385.1994,784.5469 Q385.3869,784.4375 385.6056,784.4375 Q385.9806,784.4375 386.215,784.7031 Q386.4494,784.9531 386.4494,785.5625 L386.4494,787.0156 Q386.4494,787.625 386.215,787.8906 Q385.9806,788.1563 385.6056,788.1563 Q385.2619,788.1563 385.0588,787.9531 Q384.8556,787.7656 384.7463,787.25 Q384.6994,786.8906 384.5119,786.7031 Q384.1838,786.3281 383.5744,786.1094 Q382.965,785.8906 382.34,785.8906 Q381.5744,785.8906 380.9338,786.2188 Q380.3088,786.5469 379.8088,787.2969 Q379.3244,788.0469 379.3244,789.0781 L379.3244,790.1719 Q379.3244,791.4063 380.215,792.2344 Q381.1056,793.0469 382.6994,793.0469 Q383.6369,793.0469 384.2931,792.7969 Q384.6838,792.6406 385.1056,792.2031 Q385.3713,791.9375 385.5119,791.8594 Q385.6681,791.7813 385.8713,791.7813 Q386.1994,791.7813 386.4494,792.0469 Q386.715,792.2969 386.715,792.6406 Q386.715,792.9844 386.3713,793.3906 Q385.8713,793.9688 385.0744,794.2969 Q383.9963,794.75 382.6994,794.75 Q381.1838,794.75 379.9806,794.125 Q378.9963,793.625 378.3088,792.5625 Q377.6213,791.4844 377.6213,790.2031 L377.6213,789.0469 Q377.6213,787.7188 378.2306,786.5781 Q378.8556,785.4219 379.9494,784.8125 Q381.0431,784.1875 382.2775,784.1875 Q383.0119,784.1875 383.6525,784.3594 Q384.3088,784.5156 384.8556,784.875 Z " fill="#000000"/><text fill="#000000" font-family="sans-serif" font-size="14" lengthAdjust="spacing" textLength="47" x="402.59" y="794.7285">Invader</text><line style="stroke:#181818;stroke-width:0.5;" x1="306.84" x2="512.84" y1="805" y2="805"/><line style="stroke:#181818;stroke-width:0.5;" x1="306.84" x2="512.84" y1="813" y2="813"/><ellipse cx="316.84" cy="827.3047" fill="#84BE84" rx="3" ry="3" style="stroke:#038048;stroke-width:1.0;"/><text fill="#000000" font-family="sans-serif" font-size="14" lengthAdjust="spacing" textLength="36" x="325.84" y="831.5332">isHit()</text><ellipse cx="316.84" cy="844.9141" fill="#84BE84" rx="3" ry="3" style="stroke:#038048;stroke-width:1.0;"/><text fill="#000000" font-family="sans-serif" font-size="14" lengthAdjust="spacing" textLength="174" x="325.84" y="849.1426">setDirection(direction: float)</text><ellipse cx="316.84" cy="862.5234" fill="#84BE84" rx="3" ry="3" style="stroke:#038048;stroke-width:1.0;"/><text fill="#000000" font-family="sans-serif" font-size="14" lengthAdjust="spacing" textLength="101" x="325.84" y="866.752">moveVertically()</text><ellipse cx="316.84" cy="880.1328" fill="#84BE84" rx="3" ry="3" style="stroke:#038048;stroke-width:1.0;"/><text fill="#000000" font-family="sans-serif" font-size="14" lengthAdjust="spacing" textLength="116" x="325.84" y="884.3613">moveHorizontally()</text><ellipse cx="316.84" cy="897.7422" fill="#84BE84" rx="3" ry="3" style="stroke:#038048;stroke-width:1.0;"/><text fill="#000000" font-family="sans-serif" font-size="14" lengthAdjust="spacing" textLength="182" x="325.84" y="901.9707">hasReachedEdge(): boolean</text><ellipse cx="316.84" cy="915.3516" fill="#84BE84" rx="3" ry="3" style="stroke:#038048;stroke-width:1.0;"/><text fill="#000000" font-family="sans-serif" font-size="14" lengthAdjust="spacing" textLength="174" x="325.84" y="919.5801">hasReachedEnd(): boolean</text><ellipse cx="316.84" cy="932.9609" fill="#84BE84" rx="3" ry="3" style="stroke:#038048;stroke-width:1.0;"/><text fill="#000000" font-family="sans-serif" font-size="14" lengthAdjust="spacing" textLength="129" x="325.84" y="937.1895">canShoot(): boolean</text><ellipse cx="316.84" cy="950.5703" fill="#84BE84" rx="3" ry="3" style="stroke:#038048;stroke-width:1.0;"/><text fill="#000000" font-family="sans-serif" font-size="14" lengthAdjust="spacing" textLength="80" x="325.84" y="954.7988">shootBullet()</text></g><!--MD5=[2824395d61b6e4620487641a86c41e67]
class Bullet--><g id="elem_Bullet"><rect codeLine="51" fill="#F1F1F1" height="83.2188" id="Bullet" rx="2.5" ry="2.5" style="stroke:#181818;stroke-width:0.5;" width="124" x="252.84" y="1040"/><ellipse cx="293.49" cy="1056" fill="#ADD1B2" rx="11" ry="11" style="stroke:#181818;stroke-width:1.0;"/><path d="M296.2556,1051.875 Q296.4119,1051.6563 296.5994,1051.5469 Q296.7869,1051.4375 297.0056,1051.4375 Q297.3806,1051.4375 297.615,1051.7031 Q297.8494,1051.9531 297.8494,1052.5625 L297.8494,1054.0156 Q297.8494,1054.625 297.615,1054.8906 Q297.3806,1055.1563 297.0056,1055.1563 Q296.6619,1055.1563 296.4588,1054.9531 Q296.2556,1054.7656 296.1463,1054.25 Q296.0994,1053.8906 295.9119,1053.7031 Q295.5838,1053.3281 294.9744,1053.1094 Q294.365,1052.8906 293.74,1052.8906 Q292.9744,1052.8906 292.3338,1053.2188 Q291.7088,1053.5469 291.2088,1054.2969 Q290.7244,1055.0469 290.7244,1056.0781 L290.7244,1057.1719 Q290.7244,1058.4063 291.615,1059.2344 Q292.5056,1060.0469 294.0994,1060.0469 Q295.0369,1060.0469 295.6931,1059.7969 Q296.0838,1059.6406 296.5056,1059.2031 Q296.7713,1058.9375 296.9119,1058.8594 Q297.0681,1058.7813 297.2713,1058.7813 Q297.5994,1058.7813 297.8494,1059.0469 Q298.115,1059.2969 298.115,1059.6406 Q298.115,1059.9844 297.7713,1060.3906 Q297.2713,1060.9688 296.4744,1061.2969 Q295.3963,1061.75 294.0994,1061.75 Q292.5838,1061.75 291.3806,1061.125 Q290.3963,1060.625 289.7088,1059.5625 Q289.0213,1058.4844 289.0213,1057.2031 L289.0213,1056.0469 Q289.0213,1054.7188 289.6306,1053.5781 Q290.2556,1052.4219 291.3494,1051.8125 Q292.4431,1051.1875 293.6775,1051.1875 Q294.4119,1051.1875 295.0525,1051.3594 Q295.7088,1051.5156 296.2556,1051.875 Z " fill="#000000"/><text fill="#000000" font-family="sans-serif" font-size="14" lengthAdjust="spacing" textLength="35" x="313.19" y="1061.7285">Bullet</text><line style="stroke:#181818;stroke-width:0.5;" x1="253.84" x2="375.84" y1="1072" y2="1072"/><rect fill="none" height="6" style="stroke:#C82930;stroke-width:1.0;" width="6" x="260.84" y="1083.3047"/><text fill="#000000" font-family="sans-serif" font-size="14" lengthAdjust="spacing" textLength="98" x="272.84" y="1090.5332">directionY: float</text><line style="stroke:#181818;stroke-width:0.5;" x1="253.84" x2="375.84" y1="1097.6094" y2="1097.6094"/><ellipse cx="263.84" cy="1111.9141" fill="#84BE84" rx="3" ry="3" style="stroke:#038048;stroke-width:1.0;"/><text fill="#000000" font-family="sans-serif" font-size="14" lengthAdjust="spacing" textLength="44" x="272.84" y="1116.1426">move()</text></g><!--MD5=[107af66394bf1ebaa045812c9c475148]
class Score--><g id="elem_Score"><rect codeLine="56" fill="#F1F1F1" height="83.2188" id="Score" rx="2.5" ry="2.5" style="stroke:#181818;stroke-width:0.5;" width="188" x="757.84" y="423.5"/><ellipse cx="829.09" cy="439.5" fill="#ADD1B2" rx="11" ry="11" style="stroke:#181818;stroke-width:1.0;"/><path d="M831.8556,435.375 Q832.0119,435.1563 832.1994,435.0469 Q832.3869,434.9375 832.6056,434.9375 Q832.9806,434.9375 833.215,435.2031 Q833.4494,435.4531 833.4494,436.0625 L833.4494,437.5156 Q833.4494,438.125 833.215,438.3906 Q832.9806,438.6563 832.6056,438.6563 Q832.2619,438.6563 832.0588,438.4531 Q831.8556,438.2656 831.7463,437.75 Q831.6994,437.3906 831.5119,437.2031 Q831.1838,436.8281 830.5744,436.6094 Q829.965,436.3906 829.34,436.3906 Q828.5744,436.3906 827.9338,436.7188 Q827.3088,437.0469 826.8088,437.7969 Q826.3244,438.5469 826.3244,439.5781 L826.3244,440.6719 Q826.3244,441.9063 827.215,442.7344 Q828.1056,443.5469 829.6994,443.5469 Q830.6369,443.5469 831.2931,443.2969 Q831.6838,443.1406 832.1056,442.7031 Q832.3713,442.4375 832.5119,442.3594 Q832.6681,442.2813 832.8713,442.2813 Q833.1994,442.2813 833.4494,442.5469 Q833.715,442.7969 833.715,443.1406 Q833.715,443.4844 833.3713,443.8906 Q832.8713,444.4688 832.0744,444.7969 Q830.9963,445.25 829.6994,445.25 Q828.1838,445.25 826.9806,444.625 Q825.9963,444.125 825.3088,443.0625 Q824.6213,441.9844 824.6213,440.7031 L824.6213,439.5469 Q824.6213,438.2188 825.2306,437.0781 Q825.8556,435.9219 826.9494,435.3125 Q828.0431,434.6875 829.2775,434.6875 Q830.0119,434.6875 830.6525,434.8594 Q831.3088,435.0156 831.8556,435.375 Z " fill="#000000"/><text fill="#000000" font-family="sans-serif" font-size="14" lengthAdjust="spacing" textLength="37" x="849.59" y="445.2285">Score</text><line style="stroke:#181818;stroke-width:0.5;" x1="758.84" x2="944.84" y1="455.5" y2="455.5"/><rect fill="none" height="6" style="stroke:#C82930;stroke-width:1.0;" width="6" x="765.84" y="466.8047"/><text fill="#000000" font-family="sans-serif" font-size="14" lengthAdjust="spacing" textLength="57" x="777.84" y="474.0332">value: int</text><line style="stroke:#181818;stroke-width:0.5;" x1="758.84" x2="944.84" y1="481.1094" y2="481.1094"/><ellipse cx="768.84" cy="495.4141" fill="#84BE84" rx="3" ry="3" style="stroke:#038048;stroke-width:1.0;"/><text fill="#000000" font-family="sans-serif" font-size="14" lengthAdjust="spacing" textLength="162" x="777.84" y="499.6426">increaseScore(points: int)</text></g><!--MD5=[be996cdb8e6bf2fc7cb89c555f2cd144]
class Entity--><g id="elem_Entity"><rect codeLine="61" fill="#F1F1F1" height="206.4844" id="Entity" rx="2.5" ry="2.5" style="stroke:#181818;stroke-width:0.5;" width="273" x="124.34" y="362"/><ellipse cx="239.09" cy="378" fill="#A9DCDF" rx="11" ry="11" style="stroke:#181818;stroke-width:1.0;"/><path d="M241.2775,379.7656 L237.1369,379.7656 L236.715,380.7969 L237.1369,380.7969 Q237.7463,380.7969 238.0119,381.0313 Q238.2775,381.2656 238.2775,381.6563 Q238.2775,382.0313 238.0119,382.2656 Q237.7463,382.5 237.1369,382.5 L234.84,382.5 Q234.2306,382.5 233.9806,382.2656 Q233.715,382.0313 233.715,381.6406 Q233.715,381.2656 233.9963,381.0313 Q234.2619,380.7813 234.8869,380.7969 L237.5588,374.1406 L236.4494,374.1406 Q235.84,374.1406 235.5744,373.9063 Q235.3088,373.6719 235.3088,373.2813 Q235.3088,372.9063 235.5744,372.6719 Q235.84,372.4375 236.4494,372.4375 L240.1213,372.4375 L243.5119,380.7969 Q244.1056,380.7969 244.2931,380.9375 Q244.6838,381.2031 244.6838,381.6563 Q244.6838,382.0313 244.4181,382.2656 Q244.1681,382.5 243.5588,382.5 L241.2619,382.5 Q240.6525,382.5 240.3869,382.2656 Q240.1213,382.0313 240.1213,381.6406 Q240.1213,381.2656 240.3869,381.0313 Q240.6525,380.7969 241.2619,380.7969 L241.6838,380.7969 L241.2775,379.7656 Z M240.5588,378.0625 L239.1994,374.6875 L237.8244,378.0625 L240.5588,378.0625 Z " fill="#000000"/><text fill="#000000" font-family="sans-serif" font-size="14" font-style="italic" lengthAdjust="spacing" textLength="35" x="259.59" y="383.7285">Entity</text><line style="stroke:#181818;stroke-width:0.5;" x1="125.34" x2="396.34" y1="394" y2="394"/><rect fill="none" height="6" style="stroke:#C82930;stroke-width:1.0;" width="6" x="132.34" y="405.3047"/><text fill="#000000" font-family="sans-serif" font-size="14" lengthAdjust="spacing" textLength="92" x="144.34" y="412.5332">positionX: float</text><rect fill="none" height="6" style="stroke:#C82930;stroke-width:1.0;" width="6" x="132.34" y="422.9141"/><text fill="#000000" font-family="sans-serif" font-size="14" lengthAdjust="spacing" textLength="93" x="144.34" y="430.1426">positionY: float</text><rect fill="none" height="6" style="stroke:#C82930;stroke-width:1.0;" width="6" x="132.34" y="440.5234"/><text fill="#000000" font-family="sans-serif" font-size="14" lengthAdjust="spacing" textLength="67" x="144.34" y="447.752">sizeX: float</text><rect fill="none" height="6" style="stroke:#C82930;stroke-width:1.0;" width="6" x="132.34" y="458.1328"/><text fill="#000000" font-family="sans-serif" font-size="14" lengthAdjust="spacing" textLength="68" x="144.34" y="465.3613">sizeY: float</text><line style="stroke:#181818;stroke-width:0.5;" x1="125.34" x2="396.34" y1="472.4375" y2="472.4375"/><ellipse cx="135.34" cy="486.7422" fill="#84BE84" rx="3" ry="3" style="stroke:#038048;stroke-width:1.0;"/><text fill="#000000" font-family="sans-serif" font-size="14" lengthAdjust="spacing" textLength="73" x="144.34" y="490.9707">getX(): float</text><ellipse cx="135.34" cy="504.3516" fill="#84BE84" rx="3" ry="3" style="stroke:#038048;stroke-width:1.0;"/><text fill="#000000" font-family="sans-serif" font-size="14" lengthAdjust="spacing" textLength="74" x="144.34" y="508.5801">getY(): float</text><ellipse cx="135.34" cy="521.9609" fill="#84BE84" rx="3" ry="3" style="stroke:#038048;stroke-width:1.0;"/><text fill="#000000" font-family="sans-serif" font-size="14" lengthAdjust="spacing" textLength="99" x="144.34" y="526.1895">getSizeX(): float</text><ellipse cx="135.34" cy="539.5703" fill="#84BE84" rx="3" ry="3" style="stroke:#038048;stroke-width:1.0;"/><text fill="#000000" font-family="sans-serif" font-size="14" lengthAdjust="spacing" textLength="100" x="144.34" y="543.7988">getSizeY(): float</text><ellipse cx="135.34" cy="557.1797" fill="#84BE84" rx="3" ry="3" style="stroke:#038048;stroke-width:1.0;"/><text fill="#000000" font-family="sans-serif" font-size="14" lengthAdjust="spacing" textLength="247" x="144.34" y="561.4082">hasCollidedWith(Entity: other): boolean</text></g><!--MD5=[3cab58e622330109321580dbb0b85605]
class Input--><g id="elem_Input"><rect codeLine="90" fill="#F1F1F1" height="100.8281" id="Input" rx="2.5" ry="2.5" style="stroke:#181818;stroke-width:0.5;" width="235" x="1002.34" y="817"/><ellipse cx="1100.09" cy="833" fill="#ADD1B2" rx="11" ry="11" style="stroke:#181818;stroke-width:1.0;"/><path d="M1102.8556,828.875 Q1103.0119,828.6563 1103.1994,828.5469 Q1103.3869,828.4375 1103.6056,828.4375 Q1103.9806,828.4375 1104.215,828.7031 Q1104.4494,828.9531 1104.4494,829.5625 L1104.4494,831.0156 Q1104.4494,831.625 1104.215,831.8906 Q1103.9806,832.1563 1103.6056,832.1563 Q1103.2619,832.1563 1103.0588,831.9531 Q1102.8556,831.7656 1102.7463,831.25 Q1102.6994,830.8906 1102.5119,830.7031 Q1102.1838,830.3281 1101.5744,830.1094 Q1100.965,829.8906 1100.34,829.8906 Q1099.5744,829.8906 1098.9338,830.2188 Q1098.3088,830.5469 1097.8088,831.2969 Q1097.3244,832.0469 1097.3244,833.0781 L1097.3244,834.1719 Q1097.3244,835.4063 1098.215,836.2344 Q1099.1056,837.0469 1100.6994,837.0469 Q1101.6369,837.0469 1102.2931,836.7969 Q1102.6838,836.6406 1103.1056,836.2031 Q1103.3713,835.9375 1103.5119,835.8594 Q1103.6681,835.7813 1103.8713,835.7813 Q1104.1994,835.7813 1104.4494,836.0469 Q1104.715,836.2969 1104.715,836.6406 Q1104.715,836.9844 1104.3713,837.3906 Q1103.8713,837.9688 1103.0744,838.2969 Q1101.9963,838.75 1100.6994,838.75 Q1099.1838,838.75 1097.9806,838.125 Q1096.9963,837.625 1096.3088,836.5625 Q1095.6213,835.4844 1095.6213,834.2031 L1095.6213,833.0469 Q1095.6213,831.7188 1096.2306,830.5781 Q1096.8556,829.4219 1097.9494,828.8125 Q1099.0431,828.1875 1100.2775,828.1875 Q1101.0119,828.1875 1101.6525,828.3594 Q1102.3088,828.5156 1102.8556,828.875 Z " fill="#000000"/><text fill="#000000" font-family="sans-serif" font-size="14" lengthAdjust="spacing" textLength="31" x="1120.59" y="838.7285">Input</text><line style="stroke:#181818;stroke-width:0.5;" x1="1003.34" x2="1236.34" y1="849" y2="849"/><line style="stroke:#181818;stroke-width:0.5;" x1="1003.34" x2="1236.34" y1="857" y2="857"/><ellipse cx="1013.34" cy="871.3047" fill="#84BE84" rx="3" ry="3" style="stroke:#038048;stroke-width:1.0;"/><text fill="#000000" font-family="sans-serif" font-size="14" lengthAdjust="spacing" textLength="192" x="1022.34" y="875.5332">isKeyDown(Key: key): boolean</text><ellipse cx="1013.34" cy="888.9141" fill="#84BE84" rx="3" ry="3" style="stroke:#038048;stroke-width:1.0;"/><text fill="#000000" font-family="sans-serif" font-size="14" lengthAdjust="spacing" textLength="174" x="1022.34" y="893.1426">isKeyUp(Key: key): boolean</text><ellipse cx="1013.34" cy="906.5234" fill="#84BE84" rx="3" ry="3" style="stroke:#038048;stroke-width:1.0;"/><text fill="#000000" font-family="sans-serif" font-size="14" lengthAdjust="spacing" textLength="209" x="1022.34" y="910.752">isKeyPressed(Key: key): boolean</text></g><!--MD5=[d2cdea4240e3cfbe1757d5df2e40a270]
class Graphics--><g id="elem_Graphics"><rect codeLine="95" fill="#F1F1F1" height="48" id="Graphics" rx="2.5" ry="2.5" style="stroke:#181818;stroke-width:0.5;" width="89" x="1272.34" y="843.5"/><ellipse cx="1287.34" cy="859.5" fill="#ADD1B2" rx="11" ry="11" style="stroke:#181818;stroke-width:1.0;"/><path d="M1290.1056,855.375 Q1290.2619,855.1563 1290.4494,855.0469 Q1290.6369,854.9375 1290.8556,854.9375 Q1291.2306,854.9375 1291.465,855.2031 Q1291.6994,855.4531 1291.6994,856.0625 L1291.6994,857.5156 Q1291.6994,858.125 1291.465,858.3906 Q1291.2306,858.6563 1290.8556,858.6563 Q1290.5119,858.6563 1290.3088,858.4531 Q1290.1056,858.2656 1289.9963,857.75 Q1289.9494,857.3906 1289.7619,857.2031 Q1289.4338,856.8281 1288.8244,856.6094 Q1288.215,856.3906 1287.59,856.3906 Q1286.8244,856.3906 1286.1838,856.7188 Q1285.5588,857.0469 1285.0588,857.7969 Q1284.5744,858.5469 1284.5744,859.5781 L1284.5744,860.6719 Q1284.5744,861.9063 1285.465,862.7344 Q1286.3556,863.5469 1287.9494,863.5469 Q1288.8869,863.5469 1289.5431,863.2969 Q1289.9338,863.1406 1290.3556,862.7031 Q1290.6213,862.4375 1290.7619,862.3594 Q1290.9181,862.2813 1291.1213,862.2813 Q1291.4494,862.2813 1291.6994,862.5469 Q1291.965,862.7969 1291.965,863.1406 Q1291.965,863.4844 1291.6213,863.8906 Q1291.1213,864.4688 1290.3244,864.7969 Q1289.2463,865.25 1287.9494,865.25 Q1286.4338,865.25 1285.2306,864.625 Q1284.2463,864.125 1283.5588,863.0625 Q1282.8713,861.9844 1282.8713,860.7031 L1282.8713,859.5469 Q1282.8713,858.2188 1283.4806,857.0781 Q1284.1056,855.9219 1285.1994,855.3125 Q1286.2931,854.6875 1287.5275,854.6875 Q1288.2619,854.6875 1288.9025,854.8594 Q1289.5588,855.0156 1290.1056,855.375 Z " fill="#000000"/><text fill="#000000" font-family="sans-serif" font-size="14" lengthAdjust="spacing" textLength="57" x="1301.34" y="865.2285">Graphics</text><line style="stroke:#181818;stroke-width:0.5;" x1="1273.34" x2="1360.34" y1="875.5" y2="875.5"/><line style="stroke:#181818;stroke-width:0.5;" x1="1273.34" x2="1360.34" y1="883.5" y2="883.5"/></g><!--MD5=[d7d1efc77683564de81bac08978bd98c]
reverse link Game to Score--><g id="link_Game_Score"><path codeLine="73" d="M815.8,313.9 C825.42,353.99 835.15,394.52 842.08,423.34 " fill="none" id="Game-backto-Score" style="stroke:#181818;stroke-width:1.0;"/><polygon fill="#181818" points="812.75,301.2,810.265,307.9694,815.558,312.8669,818.0429,306.0974,812.75,301.2" style="stroke:#181818;stroke-width:1.0;"/></g><!--MD5=[bbc6ee62d3d47812e486fb9dc1de45ab]
reverse link Game to Player--><g id="link_Game_Player"><path codeLine="74" d="M657.25,189.44 C481.07,216.24 173.14,274.52 106.84,362 C6,495.05 90.03,706.63 140.92,808.26 " fill="none" id="Game-backto-Player" style="stroke:#181818;stroke-width:1.0;"/><polygon fill="#181818" points="670.22,187.49,663.6925,184.4254,658.3531,189.272,664.8805,192.3367,670.22,187.49" style="stroke:#181818;stroke-width:1.0;"/></g><!--MD5=[94e53ade384e37c8f4a42bcfaeced7b5]
reverse link Game to InvadersGroup--><g id="link_Game_InvadersGroup"><path codeLine="75" d="M675.46,311.56 C660.28,331.4 644.97,351.41 630.66,370.11 " fill="none" id="Game-backto-InvadersGroup" style="stroke:#181818;stroke-width:1.0;"/><polygon fill="#181818" points="683.38,301.2,676.5581,303.537,676.0916,310.733,682.9135,308.396,683.38,301.2" style="stroke:#181818;stroke-width:1.0;"/></g><!--MD5=[85768f61844380af82165e7486ee22bd]
reverse link Game to Bullet--><g id="link_Game_Bullet"><path codeLine="76" d="M740.73,314.05 C730.23,361.31 721.84,414.54 721.84,464 C721.84,464 721.84,464 721.84,868.5 C721.84,1022.07 491.11,1064.57 377.1,1076.19 " fill="none" id="Game-backto-Bullet" style="stroke:#181818;stroke-width:1.0;"/><polygon fill="#181818" points="743.67,301.21,738.4376,306.172,741.0054,312.9104,746.2379,307.9484,743.67,301.21" style="stroke:#181818;stroke-width:1.0;"/></g><!--MD5=[cb54fa1cb6d1f268c3eb4c4ac8fb66be]
reverse link InvadersGroup to InvadersColumn--><g id="link_InvadersGroup_InvadersColumn"><path codeLine="78" d="M540.51,572.55 C537.06,592.62 533.65,612.44 530.83,628.88 " fill="none" id="InvadersGroup-backto-InvadersColumn" style="stroke:#181818;stroke-width:1.0;"/><polygon fill="#181818" points="542.72,559.71,537.7615,564.9457,540.6873,571.5366,545.6458,566.3009,542.72,559.71" style="stroke:#181818;stroke-width:1.0;"/></g><!--MD5=[4ff0fa87576fc49f5d674a01acf96954]
reverse link InvadersColumn to Invader--><g id="link_InvadersColumn_Invader"><path codeLine="79" d="M493.14,724.01 C484.35,739.06 474.48,755.93 464.7,772.66 " fill="none" id="InvadersColumn-backto-Invader" style="stroke:#181818;stroke-width:1.0;"/><polygon fill="#181818" points="499.94,712.38,493.4572,715.538,493.8788,722.7367,500.3616,719.5788,499.94,712.38" style="stroke:#181818;stroke-width:1.0;"/></g><!--MD5=[31f74dca7c0a26bc45bfe3f5bc2458ee]
link Player to Bullet--><g id="link_Player_Bullet"><path codeLine="81" d="M183.66,926.65 C190.74,953.8 202.08,985.47 219.84,1010 C228.75,1022.31 240.45,1033.4 252.58,1042.94 " fill="none" id="Player-Bullet" style="stroke:#181818;stroke-width:1.0;"/><text fill="#000000" font-family="sans-serif" font-size="13" lengthAdjust="spacing" textLength="39" x="220.84" y="1006.4951">shoots</text></g><!--MD5=[4a219b808f4b8be81ca2ec8e41b1a0c7]
link Invader to Bullet--><g id="link_Invader_Bullet"><path codeLine="82" d="M367.9,962.1 C355.67,989.39 342.94,1017.79 333.02,1039.93 " fill="none" id="Invader-Bullet" style="stroke:#181818;stroke-width:1.0;"/><text fill="#000000" font-family="sans-serif" font-size="13" lengthAdjust="spacing" textLength="39" x="353.84" y="1006.4951">shoots</text></g><!--MD5=[12bb95a47a00263d9ac83c2497efb6a3]
reverse link Entity to Player--><g id="link_Entity_Player"><path codeLine="84" d="M234.08,587.78 C218,660.97 198.27,750.78 185.62,808.32 " fill="none" id="Entity-backto-Player" style="stroke:#181818;stroke-width:1.0;"/><polygon fill="none" points="227.28,586.13,238.41,568.1,240.95,589.14,227.28,586.13" style="stroke:#181818;stroke-width:1.0;"/></g><!--MD5=[203949ef400af4aed79f0b206d96f160]
reverse link Entity to Bullet--><g id="link_Entity_Bullet"><path codeLine="85" d="M262.32,588.24 C264.83,688.96 271.48,835.29 288.84,962 C292.43,988.19 298.75,1017.18 304.26,1039.93 " fill="none" id="Entity-backto-Bullet" style="stroke:#181818;stroke-width:1.0;"/><polygon fill="none" points="255.32,588.26,261.85,568.1,269.31,587.93,255.32,588.26" style="stroke:#181818;stroke-width:1.0;"/></g><!--MD5=[2b4b01d853b8ec9f3d70979c842211e3]
reverse link Entity to Invader--><g id="link_Entity_Invader"><path codeLine="86" d="M305.87,587.03 C328.04,646.64 354.37,717.41 374.99,772.82 " fill="none" id="Entity-backto-Invader" style="stroke:#181818;stroke-width:1.0;"/><polygon fill="none" points="299.24,589.28,298.82,568.1,312.36,584.4,299.24,589.28" style="stroke:#181818;stroke-width:1.0;"/></g><!--MD5=[0fa25c50f4b26fee8f9cf7a956aa700f]
reverse link Game to Input--><g id="link_Game_Input"><path codeLine="99" d="M902.54,281.21 C925.24,306.04 947.07,333.55 963.84,362 C1053.45,514.04 1096.5,722.69 1112.35,816.84 " fill="none" id="Game-backto-Input" style="stroke:#181818;stroke-width:1.0;"/><polygon fill="#181818" points="893.46,271.47,894.6205,278.5871,901.6365,280.2532,900.476,273.1361,893.46,271.47" style="stroke:#181818;stroke-width:1.0;"/></g><!--MD5=[7e9ee63ea8734beabfebd06b2e688b93]
reverse link Graphics to Game--><g id="link_Graphics_Game"><path codeLine="100" d="M1303.02,831.02 C1267.9,744 1168.42,515.87 1033.84,362 C993.57,315.96 940.44,274 893.35,241.34 " fill="none" id="Graphics-backto-Game" style="stroke:#181818;stroke-width:1.0;"/><polygon fill="#181818" points="1307.91,843.28,1309.3956,836.2236,1303.4533,832.1383,1301.9677,839.1947,1307.91,843.28" style="stroke:#181818;stroke-width:1.0;"/></g><!--MD5=[cfebfbc6b117a857597812889b5181af]
@startuml SpaceInvadersClassDiagram
package "model" {
  class Game {
    - player: Player
    - invadersGroup: InvaderGroup[]
    - bullets: Bullet[]
    - score: int
    - isGameOver: boolean
    + getScore(): int
    + getAllInvaders(): Invader[]
    + getAllBullets(): Bullet[]
    + getPlayer(): Player
    + startGame()
    + update()
    + endGame()
  }

  class Player {
    + moveLeft()
    + moveRight()
    + isHit(): boolean
    + shootBullet()
  }

  class InvadersGroup {
    - aliveInvaders: Invader[]
    - invadersColumns: InvadersColumn[]
    + setDirection(direction: float)
    + moveVertically()
    + moveHorizontally()
    + hasReachedEdge(): boolean
    + hasReachedEnd(): boolean
    + shootBullet()
  }

  class InvadersColumn {
    + invaders: Invader[]
    + getFrontInvader(): Invader
  }

  class Invader {
    + isHit()
    + setDirection(direction: float)
    + moveVertically()
    + moveHorizontally()
    + hasReachedEdge(): boolean
    + hasReachedEnd(): boolean
    + canShoot(): boolean
    + shootBullet()
  }

  class Bullet {
    - directionY: float
    + move()
  }

  class Score {
    - value: int
    + increaseScore(points: int)
  }

  abstract class Entity {
    - positionX: float
    - positionY: float
    - sizeX: float
    - sizeY: float
    + getX(): float
    + getY(): float
    + getSizeX(): float
    + getSizeY(): float
    + hasCollidedWith(Entity: other): boolean
  }

  Game *- - Score
  Game *- - Player
  Game *- - InvadersGroup
  Game *- - Bullet

  InvadersGroup *- - InvadersColumn
  InvadersColumn *- - Invader

  Player - - Bullet: shoots
  Invader - - Bullet: shoots

  Entity <|- - - Player
  Entity <|- - - Bullet
  Entity <|- - - Invader

}
package "view_controller" {
  class Input {
    + isKeyDown(Key: key): boolean
    + isKeyUp(Key: key): boolean
    + isKeyPressed(Key: key): boolean
  }
  class Graphics {

  }
}
Game *- - - - Input
Graphics *- - Game
@enduml

PlantUML version 1.2022.7(Mon Aug 22 10:01:30 PDT 2022)
(GPL source distribution)
Java Runtime: Java(TM) SE Runtime Environment
JVM: Java HotSpot(TM) 64-Bit Server VM
Default Encoding: Cp1252
Language: en
Country: US
--></g></svg>