<?xml version="1.0" encoding="UTF-8" standalone="no"?><svg xmlns="http://www.w3.org/2000/svg" xmlns:xlink="http://www.w3.org/1999/xlink" contentStyleType="text/css" height="548px" preserveAspectRatio="none" style="width:602px;height:548px;background:#FFFFFF;" version="1.1" viewBox="0 0 602 548" width="602px" zoomAndPan="magnify"><defs/><g><rect fill="#FFFFFF" height="60.7031" style="stroke:#181818;stroke-width:1.0;" width="10" x="356.5" y="236.3672"/><rect fill="#FFFFFF" height="60.7031" style="stroke:#181818;stroke-width:1.0;" width="10" x="356.5" y="327.4219"/><line style="stroke:#181818;stroke-width:0.5;stroke-dasharray:5.0,5.0;" x1="29" x2="29" y1="82.6094" y2="466.8281"/><line style="stroke:#181818;stroke-width:0.5;stroke-dasharray:5.0,5.0;" x1="106" x2="106" y1="82.6094" y2="466.8281"/><line style="stroke:#181818;stroke-width:0.5;stroke-dasharray:5.0,5.0;" x1="222" x2="222" y1="82.6094" y2="466.8281"/><line style="stroke:#181818;stroke-width:0.5;stroke-dasharray:5.0,5.0;" x1="293" x2="293" y1="82.6094" y2="466.8281"/><line style="stroke:#181818;stroke-width:0.5;stroke-dasharray:5.0,5.0;" x1="361" x2="361" y1="82.6094" y2="466.8281"/><line style="stroke:#181818;stroke-width:0.5;stroke-dasharray:5.0,5.0;" x1="477" x2="477" y1="82.6094" y2="466.8281"/><line style="stroke:#181818;stroke-width:0.5;stroke-dasharray:5.0,5.0;" x1="554" x2="554" y1="82.6094" y2="466.8281"/><text fill="#000000" font-family="sans-serif" font-size="14" lengthAdjust="spacing" textLength="43" x="5" y="79.5332">Gamer</text><ellipse cx="29.5" cy="13.5" fill="#E2E2F0" rx="8" ry="8" style="stroke:#181818;stroke-width:0.5;"/><path d="M29.5,21.5 L29.5,48.5 M16.5,29.5 L42.5,29.5 M29.5,48.5 L16.5,63.5 M29.5,48.5 L42.5,63.5 " fill="none" style="stroke:#181818;stroke-width:0.5;"/><text fill="#000000" font-family="sans-serif" font-size="14" lengthAdjust="spacing" textLength="43" x="5" y="480.3613">Gamer</text><ellipse cx="29.5" cy="491.9375" fill="#E2E2F0" rx="8" ry="8" style="stroke:#181818;stroke-width:0.5;"/><path d="M29.5,499.9375 L29.5,526.9375 M16.5,507.9375 L42.5,507.9375 M29.5,526.9375 L16.5,541.9375 M29.5,526.9375 L42.5,541.9375 " fill="none" style="stroke:#181818;stroke-width:0.5;"/><rect fill="#E2E2F0" height="31.6094" rx="2.5" ry="2.5" style="stroke:#181818;stroke-width:0.5;" width="84" x="64" y="50"/><text fill="#000000" font-family="sans-serif" font-size="14" lengthAdjust="spacing" textLength="70" x="71" y="71.5332">GameLoop</text><rect fill="#E2E2F0" height="31.6094" rx="2.5" ry="2.5" style="stroke:#181818;stroke-width:0.5;" width="84" x="64" y="465.8281"/><text fill="#000000" font-family="sans-serif" font-size="14" lengthAdjust="spacing" textLength="70" x="71" y="487.3613">GameLoop</text><rect fill="#E2E2F0" height="31.6094" rx="2.5" ry="2.5" style="stroke:#181818;stroke-width:0.5;" width="54" x="195" y="50"/><text fill="#000000" font-family="sans-serif" font-size="14" lengthAdjust="spacing" textLength="40" x="202" y="71.5332">Player</text><rect fill="#E2E2F0" height="31.6094" rx="2.5" ry="2.5" style="stroke:#181818;stroke-width:0.5;" width="54" x="195" y="465.8281"/><text fill="#000000" font-family="sans-serif" font-size="14" lengthAdjust="spacing" textLength="40" x="202" y="487.3613">Player</text><rect fill="#E2E2F0" height="31.6094" rx="2.5" ry="2.5" style="stroke:#181818;stroke-width:0.5;" width="68" x="259" y="50"/><text fill="#000000" font-family="sans-serif" font-size="14" lengthAdjust="spacing" textLength="54" x="266" y="71.5332">Invaders</text><rect fill="#E2E2F0" height="31.6094" rx="2.5" ry="2.5" style="stroke:#181818;stroke-width:0.5;" width="68" x="259" y="465.8281"/><text fill="#000000" font-family="sans-serif" font-size="14" lengthAdjust="spacing" textLength="54" x="266" y="487.3613">Invaders</text><rect fill="#E2E2F0" height="31.6094" rx="2.5" ry="2.5" style="stroke:#181818;stroke-width:0.5;" width="49" x="337" y="50"/><text fill="#000000" font-family="sans-serif" font-size="14" lengthAdjust="spacing" textLength="35" x="344" y="71.5332">Bullet</text><rect fill="#E2E2F0" height="31.6094" rx="2.5" ry="2.5" style="stroke:#181818;stroke-width:0.5;" width="49" x="337" y="465.8281"/><text fill="#000000" font-family="sans-serif" font-size="14" lengthAdjust="spacing" textLength="35" x="344" y="487.3613">Bullet</text><rect fill="#E2E2F0" height="31.6094" rx="2.5" ry="2.5" style="stroke:#181818;stroke-width:0.5;" width="51" x="452" y="50"/><text fill="#000000" font-family="sans-serif" font-size="14" lengthAdjust="spacing" textLength="37" x="459" y="71.5332">Score</text><rect fill="#E2E2F0" height="31.6094" rx="2.5" ry="2.5" style="stroke:#181818;stroke-width:0.5;" width="51" x="452" y="465.8281"/><text fill="#000000" font-family="sans-serif" font-size="14" lengthAdjust="spacing" textLength="37" x="459" y="487.3613">Score</text><rect fill="#E2E2F0" height="31.6094" rx="2.5" ry="2.5" style="stroke:#181818;stroke-width:0.5;" width="83" x="513" y="50"/><text fill="#000000" font-family="sans-serif" font-size="14" lengthAdjust="spacing" textLength="69" x="520" y="71.5332">GameOver</text><rect fill="#E2E2F0" height="31.6094" rx="2.5" ry="2.5" style="stroke:#181818;stroke-width:0.5;" width="83" x="513" y="465.8281"/><text fill="#000000" font-family="sans-serif" font-size="14" lengthAdjust="spacing" textLength="69" x="520" y="487.3613">GameOver</text><rect fill="#FFFFFF" height="60.7031" style="stroke:#181818;stroke-width:1.0;" width="10" x="356.5" y="236.3672"/><rect fill="#FFFFFF" height="60.7031" style="stroke:#181818;stroke-width:1.0;" width="10" x="356.5" y="327.4219"/><polygon fill="#181818" points="94,110.9609,104,114.9609,94,118.9609,98,114.9609" style="stroke:#181818;stroke-width:1.0;"/><line style="stroke:#181818;stroke-width:1.0;" x1="29.5" x2="100" y1="114.9609" y2="114.9609"/><text fill="#000000" font-family="sans-serif" font-size="13" lengthAdjust="spacing" textLength="28" x="36.5" y="110.1045">Input</text><polygon fill="#181818" points="210,141.3125,220,145.3125,210,149.3125,214,145.3125" style="stroke:#181818;stroke-width:1.0;"/><line style="stroke:#181818;stroke-width:1.0;" x1="106" x2="216" y1="145.3125" y2="145.3125"/><text fill="#000000" font-family="sans-serif" font-size="13" lengthAdjust="spacing" textLength="92" x="113" y="140.4561">Update Position</text><polygon fill="#181818" points="281,171.6641,291,175.6641,281,179.6641,285,175.6641" style="stroke:#181818;stroke-width:1.0;"/><line style="stroke:#181818;stroke-width:1.0;" x1="106" x2="287" y1="175.6641" y2="175.6641"/><text fill="#000000" font-family="sans-serif" font-size="13" lengthAdjust="spacing" textLength="92" x="113" y="170.8076">Update Position</text><polygon fill="#181818" points="349.5,202.0156,359.5,206.0156,349.5,210.0156,353.5,206.0156" style="stroke:#181818;stroke-width:1.0;"/><line style="stroke:#181818;stroke-width:1.0;" x1="106" x2="355.5" y1="206.0156" y2="206.0156"/><text fill="#000000" font-family="sans-serif" font-size="13" lengthAdjust="spacing" textLength="92" x="113" y="201.1592">Update Position</text><polygon fill="#181818" points="344.5,232.3672,354.5,236.3672,344.5,240.3672,348.5,236.3672" style="stroke:#181818;stroke-width:1.0;"/><line style="stroke:#181818;stroke-width:1.0;" x1="222" x2="350.5" y1="236.3672" y2="236.3672"/><text fill="#000000" font-family="sans-serif" font-size="13" lengthAdjust="spacing" textLength="22" x="229" y="231.5107">Fire</text><polygon fill="#181818" points="304,262.7188,294,266.7188,304,270.7188,300,266.7188" style="stroke:#181818;stroke-width:1.0;"/><line style="stroke:#181818;stroke-width:1.0;stroke-dasharray:2.0,2.0;" x1="298" x2="355.5" y1="266.7188" y2="266.7188"/><text fill="#000000" font-family="sans-serif" font-size="13" lengthAdjust="spacing" textLength="16" x="310" y="261.8623">Hit</text><line style="stroke:#A80036;stroke-width:2.0;" x1="284" x2="302" y1="257.7188" y2="275.7188"/><line style="stroke:#A80036;stroke-width:2.0;" x1="284" x2="302" y1="275.7188" y2="257.7188"/><polygon fill="#181818" points="465.5,293.0703,475.5,297.0703,465.5,301.0703,469.5,297.0703" style="stroke:#181818;stroke-width:1.0;"/><line style="stroke:#181818;stroke-width:1.0;stroke-dasharray:2.0,2.0;" x1="361.5" x2="471.5" y1="297.0703" y2="297.0703"/><text fill="#000000" font-family="sans-serif" font-size="13" lengthAdjust="spacing" textLength="87" x="368.5" y="292.2139">Increase Score</text><line style="stroke:#A80036;stroke-width:2.0;" x1="352.5" x2="370.5" y1="288.0703" y2="306.0703"/><line style="stroke:#A80036;stroke-width:2.0;" x1="352.5" x2="370.5" y1="306.0703" y2="288.0703"/><polygon fill="#181818" points="344.5,323.4219,354.5,327.4219,344.5,331.4219,348.5,327.4219" style="stroke:#181818;stroke-width:1.0;"/><line style="stroke:#181818;stroke-width:1.0;" x1="293" x2="350.5" y1="327.4219" y2="327.4219"/><text fill="#000000" font-family="sans-serif" font-size="13" lengthAdjust="spacing" textLength="22" x="300" y="322.5654">Fire</text><polygon fill="#181818" points="233,353.7734,223,357.7734,233,361.7734,229,357.7734" style="stroke:#181818;stroke-width:1.0;"/><line style="stroke:#181818;stroke-width:1.0;stroke-dasharray:2.0,2.0;" x1="227" x2="355.5" y1="357.7734" y2="357.7734"/><text fill="#000000" font-family="sans-serif" font-size="13" lengthAdjust="spacing" textLength="16" x="239" y="352.917">Hit</text><line style="stroke:#A80036;stroke-width:2.0;" x1="213" x2="231" y1="348.7734" y2="366.7734"/><line style="stroke:#A80036;stroke-width:2.0;" x1="213" x2="231" y1="366.7734" y2="348.7734"/><polygon fill="#181818" points="542.5,384.125,552.5,388.125,542.5,392.125,546.5,388.125" style="stroke:#181818;stroke-width:1.0;"/><line style="stroke:#181818;stroke-width:1.0;stroke-dasharray:2.0,2.0;" x1="361.5" x2="548.5" y1="388.125" y2="388.125"/><text fill="#000000" font-family="sans-serif" font-size="13" lengthAdjust="spacing" textLength="104" x="368.5" y="383.2686">Trigger GameOver</text><line style="stroke:#A80036;stroke-width:2.0;" x1="352.5" x2="370.5" y1="379.125" y2="397.125"/><line style="stroke:#A80036;stroke-width:2.0;" x1="352.5" x2="370.5" y1="397.125" y2="379.125"/><polygon fill="#181818" points="117,414.4766,107,418.4766,117,422.4766,113,418.4766" style="stroke:#181818;stroke-width:1.0;"/><line style="stroke:#181818;stroke-width:1.0;stroke-dasharray:2.0,2.0;" x1="111" x2="553.5" y1="418.4766" y2="418.4766"/><text fill="#000000" font-family="sans-serif" font-size="13" lengthAdjust="spacing" textLength="59" x="123" y="413.6201">End game</text><line style="stroke:#A80036;stroke-width:2.0;" x1="97" x2="115" y1="409.4766" y2="427.4766"/><line style="stroke:#A80036;stroke-width:2.0;" x1="97" x2="115" y1="427.4766" y2="409.4766"/><polygon fill="#181818" points="40.5,444.8281,30.5,448.8281,40.5,452.8281,36.5,448.8281" style="stroke:#181818;stroke-width:1.0;"/><line style="stroke:#181818;stroke-width:1.0;stroke-dasharray:2.0,2.0;" x1="34.5" x2="553.5" y1="448.8281" y2="448.8281"/><text fill="#000000" font-family="sans-serif" font-size="13" lengthAdjust="spacing" textLength="110" x="46.5" y="443.9717">Game Over Screen</text><!--MD5=[e7d4d3bba381713e8c423b7d23025c30]
@startuml SpaceInvadersSequenceDiagram
actor Gamer
participant GameLoop
participant Player
participant Invaders
participant Bullet
participant Score

Gamer -> GameLoop: Input

GameLoop -> Player: Update Position
GameLoop -> Invaders: Update Position
GameLoop -> Bullet: Update Position

Bullet <- Player++: Fire
Bullet - -> Invaders!!: Hit
Bullet - -> Score- -: Increase Score
destroy Bullet

Bullet <- Invaders++: Fire
Bullet - -> Player!!: Hit
Bullet - -> GameOver- -: Trigger GameOver
destroy Bullet

GameLoop <- - GameOver !!: End game
Gamer <- - GameOver: Game Over Screen

@enduml

PlantUML version 1.2022.7(Mon Aug 22 10:01:30 PDT 2022)
(GPL source distribution)
Java Runtime: Java(TM) SE Runtime Environment
JVM: Java HotSpot(TM) 64-Bit Server VM
Default Encoding: Cp1252
Language: en
Country: US
--></g></svg>